<svg width="32" height="32" viewBox="0 0 32 32" fill="none" xmlns="http://www.w3.org/2000/svg">
<path d="M31.5213 19.8705C29.3841 28.442 20.7016 33.6584 12.1281 31.521C3.55818 29.3841 -1.65886 20.702 0.479231 12.1312C2.61545 3.55871 11.298 -1.65814 19.8688 0.478775C28.4417 2.61569 33.6584 11.2987 31.521 19.8706L31.5212 19.8705H31.5213Z" fill="#F7931A"/>
<path fill-rule="evenodd" clip-rule="evenodd" d="M22.9608 14.0402C23.2729 11.9387 21.6844 10.809 19.5124 10.0554L20.217 7.20869L18.4966 6.7769L17.8107 9.54866C17.3584 9.43504 16.894 9.32798 16.4323 9.22185L17.1232 6.43179L15.4039 6L14.6989 8.84579C14.3246 8.75995 13.957 8.67512 13.6004 8.58574L13.6024 8.57678L11.23 7.98004L10.7723 9.83086C10.7723 9.83086 12.0487 10.1256 12.0218 10.1437C12.7184 10.3189 12.8444 10.7834 12.8235 11.1516L12.0209 14.3946C12.0688 14.4069 12.1311 14.4247 12.1997 14.4524L12.1497 14.4399C12.1073 14.4292 12.0632 14.4181 12.0179 14.4071L10.8928 18.9502C10.8077 19.1634 10.5916 19.4834 10.1045 19.3619C10.1218 19.387 8.85414 19.0476 8.85414 19.0476L8 21.0311L10.2388 21.5933C10.484 21.6552 10.7262 21.7189 10.9661 21.7818L10.9662 21.7819C11.1337 21.8259 11.3001 21.8695 11.4654 21.9121L10.7535 24.7915L12.4718 25.2233L13.1769 22.3745C13.6463 22.5028 14.1019 22.6212 14.5479 22.7328L13.8452 25.5682L15.5657 26L16.2775 23.126C19.2111 23.6853 21.417 23.4598 22.3455 20.7871C23.0936 18.6352 22.3082 17.394 20.7649 16.5846C21.889 16.3235 22.7357 15.5788 22.9614 14.0404L22.9609 14.04L22.9608 14.0402ZM19.0301 19.592C18.5423 21.5663 15.4744 20.7501 14.0707 20.3767C13.9444 20.3431 13.8316 20.3131 13.7353 20.289L14.6801 16.4743C14.7974 16.5038 14.9407 16.5362 15.1031 16.5729C16.5551 16.9011 19.5299 17.5736 19.0302 19.592H19.0301ZM15.3943 14.8025C16.5646 15.1171 19.1176 15.8034 19.5622 14.009H19.5623C20.0164 12.1738 17.5353 11.6205 16.3236 11.3503C16.1872 11.3199 16.067 11.2931 15.9688 11.2684L15.1123 14.7281C15.1931 14.7484 15.288 14.7739 15.3943 14.8025Z" fill="white"/>
</svg>
